<?xml version="1.0" encoding="UTF-8"?>
<svg id="Layer_1" data-name="Layer 1" xmlns="http://www.w3.org/2000/svg" viewBox="0 0 1920 515.86">
  <defs>
    <style>
      .cls-1 {
        fill: #fff;
      }
    </style>
  </defs>
  <g>
    <path class="cls-1" d="M347.07,78.09c1.22,1.22,1.81,2.68,1.81,4.38v50.7c0,1.74-.59,3.2-1.81,4.38-1.22,1.18-2.68,1.81-4.38,1.81h-92.64c-1.74,0-2.6.87-2.6,2.6v290.3c0,1.74-.59,3.2-1.81,4.38-1.22,1.18-2.68,1.81-4.38,1.81h-60.52c-1.74,0-3.2-.59-4.38-1.81-1.22-1.22-1.81-2.68-1.81-4.38V141.97c0-1.74-.87-2.6-2.6-2.6h-90.03c-1.74,0-3.2-.59-4.38-1.81-1.22-1.22-1.81-2.68-1.81-4.38v-50.7c0-1.74.59-3.2,1.81-4.38,1.22-1.18,2.68-1.81,4.38-1.81h260.78c1.74,0,3.2.59,4.38,1.81h0Z"/>
    <g>
      <path class="cls-1" d="M486.93,365.15h0l1.1-1.7c.39-.75.75-1.22,1.14-1.42l43.08-59.97,81.51-121.79c1.38-2.05,1.74-3.87,1.03-5.44-.71-1.54-2.25-2.33-4.66-2.33h-69.32c-3.12,0-5.52,1.38-7.26,4.14l-46.55,70.9c-1.03,2.05-2.25,2.05-3.63,0l-46.55-70.9c-1.74-2.76-4.14-4.14-7.26-4.14h-64.66c-3.43,0-5.17,1.38-5.17,4.14,0,1.03.36,2.25,1.03,3.63l83.32,123.65c.67,1.03.67,2.05,0,3.12l-83.32,123.65c-1.38,2.05-1.66,3.87-.79,5.44.87,1.54,2.49,2.33,4.93,2.33h69.32c3.12,0,5.52-1.38,7.26-4.14l45.45-69.2h0v.04Z"/>
      <path class="cls-1" d="M547.26,331.34l-39.93,56.73,30.42,46.28c1.74,2.76,4.14,4.14,7.26,4.14h65.18c3.12,0,4.66-1.38,4.66-4.14,0-1.38-.36-2.6-1.03-3.63l-66.52-99.38h-.04Z"/>
    </g>
  </g>
  <g>
    <path class="cls-1" d="M735.48,439.57V77.93c0-3.75,2.67-6.42,6.42-6.42h62.59c3.74,0,6.42,2.67,6.42,6.42v300.65c0,1.61,1.07,2.67,2.67,2.67h174.93c3.74,0,6.42,2.67,6.42,6.42v51.89c0,3.74-2.67,6.42-6.42,6.42h-246.62c-3.75,0-6.42-2.67-6.42-6.42Z"/>
    <path class="cls-1" d="M1039.87,439.57V77.93c0-3.75,2.67-6.42,6.42-6.42h62.59c3.74,0,6.42,2.67,6.42,6.42v361.63c0,3.74-2.67,6.42-6.42,6.42h-62.59c-3.75,0-6.42-2.67-6.42-6.42Z"/>
    <path class="cls-1" d="M1406.85,71.51h62.59c3.74,0,6.42,2.67,6.42,6.42v361.63c0,3.74-2.67,6.42-6.42,6.42h-67.41c-3.21,0-6.42-1.07-8.02-4.28l-131.06-226.82c-1.07-2.14-3.21-1.61-3.21,1.07l.54,223.61c0,3.74-2.67,6.42-6.42,6.42h-62.59c-3.74,0-6.42-2.67-6.42-6.42V77.93c0-3.75,2.67-6.42,6.42-6.42h67.94c3.21,0,6.42,1.61,8.02,4.28l130,226.83c1.07,2.14,3.21,1.61,3.21-1.07V77.93c0-3.75,2.67-6.42,6.42-6.42Z"/>
    <path class="cls-1" d="M1798.99,136.24h-174.93c-1.61,0-2.67,1.07-2.67,2.67v82.92c0,1.61,1.07,2.67,2.67,2.67h114.48c3.74,0,6.42,2.67,6.42,6.42v51.89c0,3.74-2.67,6.42-6.42,6.42h-114.48c-1.61,0-2.67,1.07-2.67,2.67v86.66c0,1.61,1.07,2.67,2.67,2.67h174.93c3.74,0,6.42,2.67,6.42,6.42v51.89c0,3.74-2.67,6.42-6.42,6.42h-246.62c-3.75,0-6.42-2.67-6.42-6.42V77.93c0-3.75,2.67-6.42,6.42-6.42h246.62c3.74,0,6.42,2.67,6.42,6.42v51.89c0,3.74-2.67,6.42-6.42,6.42Z"/>
  </g>
</svg>