<?xml version="1.0" encoding="UTF-8"?>
<svg id="Layer_1" xmlns="http://www.w3.org/2000/svg" version="1.1" viewBox="0 0 595.28 595.28">
  <!-- Generator: Adobe Illustrator 30.2.1, SVG Export Plug-In . SVG Version: 2.1.1 Build 1)  -->
  <defs>
    <style>
      .st0 {
        fill: #19234f;
      }

      .st1 {
        fill: #fff;
      }
    </style>
  </defs>
  <rect class="st1" width="595.28" height="595.28"/>
  <g>
    <path class="st0" d="M299.19,126.84c1.14,1.16,1.73,2.55,1.73,4.19v48.3c0,1.65-.57,3.05-1.73,4.19-1.16,1.14-2.55,1.73-4.19,1.73h-88.22c-1.65,0-2.46.83-2.46,2.46v276.51c0,1.65-.57,3.05-1.73,4.19-1.16,1.14-2.55,1.73-4.19,1.73h-57.66c-1.65,0-3.05-.57-4.19-1.73-1.16-1.14-1.73-2.54-1.73-4.19V187.7c0-1.64-.83-2.46-2.46-2.46H46.6c-1.65,0-3.05-.57-4.19-1.73-1.16-1.14-1.73-2.54-1.73-4.19v-48.3c0-1.64.57-3.03,1.73-4.19s2.54-1.73,4.19-1.73h248.41c1.64,0,3.03.57,4.19,1.73h-.01Z"/>
    <g>
      <path class="st0" d="M432.44,400.29h0l1.07-1.62c.36-.72.72-1.17,1.08-1.37l41.03-57.11,77.66-116c1.31-1.97,1.64-3.69.99-5.18-.66-1.49-2.15-2.22-4.44-2.22h-66.04c-2.96,0-5.25,1.32-6.9,3.95l-44.37,67.53c-.99,1.97-2.15,1.97-3.45,0l-44.35-67.53c-1.65-2.63-3.95-3.95-6.9-3.95h-61.61c-3.29,0-4.92,1.32-4.92,3.95,0,.99.33,2.15.99,3.45l79.35,117.81c.66.99.66,1.97,0,2.96l-79.35,117.81c-1.32,1.97-1.56,3.69-.74,5.18.81,1.49,2.39,2.22,4.68,2.22h66.04c2.96,0,5.25-1.31,6.9-3.95l43.3-65.9h-.01Z"/>
      <path class="st0" d="M489.89,368.07l-38.03,54.03,28.97,44.1c1.64,2.63,3.95,3.95,6.9,3.95h62.11c2.96,0,4.44-1.31,4.44-3.95,0-1.31-.33-2.46-.99-3.45l-63.38-94.68h-.02Z"/>
    </g>
  </g>
</svg>